<svg xmlns="http://www.w3.org/2000/svg" viewBox="0 0 512 512">
  <defs>
    <linearGradient id="bg" x1="0%" y1="0%" x2="100%" y2="100%">
      <stop offset="0%" style="stop-color:#FFE4B5"/>
      <stop offset="100%" style="stop-color:#FFB347"/>
    </linearGradient>
    <linearGradient id="star" x1="0%" y1="0%" x2="100%" y2="100%">
      <stop offset="0%" style="stop-color:#FFD700"/>
      <stop offset="100%" style="stop-color:#FFA500"/>
    </linearGradient>
  </defs>
  <!-- 背景圆形 -->
  <circle cx="256" cy="256" r="240" fill="url(#bg)" stroke="#FF9933" stroke-width="8"/>
  <!-- 大星星 -->
  <polygon points="256,80 295,180 400,190 320,260 345,365 256,310 167,365 192,260 112,190 217,180" 
           fill="url(#star)" stroke="#FF8C00" stroke-width="4"/>
  <!-- 小星星装饰 -->
  <polygon points="120,100 130,125 155,128 137,145 142,170 120,155 98,170 103,145 85,128 110,125" 
           fill="#FFD700" opacity="0.8"/>
  <polygon points="400,120 408,140 430,142 415,155 419,175 400,163 381,175 385,155 370,142 392,140" 
           fill="#FFD700" opacity="0.8"/>
  <polygon points="100,350 108,370 130,372 115,385 119,405 100,393 81,405 85,385 70,372 92,370" 
           fill="#FFD700" opacity="0.6"/>
  <polygon points="420,380 426,395 443,397 432,407 435,422 420,413 405,422 408,407 397,397 414,395" 
           fill="#FFD700" opacity="0.6"/>
</svg>
